<svg width="134" height="130" viewBox="0 0 134 130" fill="none" xmlns="http://www.w3.org/2000/svg">
<path d="M118.629 130L79.0256 90.5132L94.2158 75.3675L133.819 114.854L118.629 130ZM18.807 130L3.61673 114.854L53.5276 65.0902L41.2307 52.8294L36.1673 57.878L26.9446 48.6824V63.4674L21.8812 68.516L0 46.699L5.06342 41.6505H19.892L10.8502 32.6352L36.529 7.03191C38.9401 4.62784 41.5321 2.88489 44.305 1.80306C47.0778 0.721227 49.9109 0.180313 52.8043 0.180313C55.6977 0.180313 58.5308 0.721227 61.3036 1.80306C64.0764 2.88489 66.6684 4.62784 69.0796 7.03191L52.4426 23.62L61.4844 32.6352L56.421 37.6838L68.7179 49.9445L84.9932 33.7171C84.511 32.3948 84.1203 31.0125 83.8214 29.57C83.5224 28.1276 83.3705 26.6852 83.3657 25.2427C83.3657 18.1507 85.8082 12.1694 90.6932 7.29876C95.5781 2.42812 101.575 -0.00480102 108.683 7.11263e-06C110.491 7.11263e-06 112.21 0.180313 113.84 0.540923C115.47 0.901533 117.127 1.44245 118.81 2.16367L100.907 20.0139L113.927 32.9958L131.83 15.1456C132.674 16.8285 133.248 18.4801 133.551 20.1004C133.855 21.7208 134.005 23.4349 134 25.2427C134 32.3347 131.56 38.316 126.68 43.1867C121.799 48.0573 115.8 50.4902 108.683 50.4854C107.236 50.4854 105.789 50.3652 104.343 50.1248C102.896 49.8844 101.51 49.4637 100.183 48.8627L18.807 130Z" fill="#EAEAEA"/>
</svg>
