<svg width="140" height="140" viewBox="0 0 140 140" fill="none" xmlns="http://www.w3.org/2000/svg">
<path d="M93.3411 70C93.3409 64.6028 91.4694 59.3726 88.0454 55.2006C84.6214 51.0285 79.8567 48.1727 74.5632 47.1197C69.2698 46.0667 63.7749 46.8817 59.0149 49.4257C54.2549 51.9698 50.5243 56.0856 48.4586 61.0718C46.3929 66.0581 46.1199 71.6063 47.6862 76.7712C49.2525 81.9361 52.5612 86.3982 57.0485 89.3972C61.5358 92.3962 66.9241 93.7466 72.2954 93.2182C77.6667 92.6899 82.6886 90.3156 86.5056 86.4997C88.6728 84.4061 90.3952 81.8967 91.5698 79.1217C92.7443 76.3467 93.3468 73.3632 93.3411 70.3499L93.3353 69.9825L93.3411 70ZM105.939 70C105.911 78.2729 103.017 86.2806 97.7499 92.6602C92.4827 99.0397 85.1676 103.397 77.0495 104.99C68.9314 106.584 60.5119 105.315 53.224 101.4C45.9361 97.4846 40.2301 91.165 37.0769 83.5164C33.9238 75.8679 33.5185 67.363 35.9299 59.4493C38.3413 51.5355 43.4205 44.7019 50.303 40.1113C57.1855 35.5207 65.4461 33.4569 73.679 34.271C81.9118 35.0852 89.6082 38.727 95.4583 44.5767C98.781 47.8 101.422 51.6585 103.223 55.9228C105.025 60.187 105.95 64.7701 105.945 69.3993L105.939 70.035V70ZM115.778 32.6379V32.6496C115.779 34.5927 115.106 36.4758 113.873 37.9783C112.641 39.4807 110.926 40.5094 109.021 40.889C107.115 41.2687 105.137 40.9758 103.423 40.0603C101.709 39.1449 100.365 37.6634 99.6212 35.8684C98.8771 34.0735 98.7784 32.076 99.342 30.2164C99.9055 28.3569 101.096 26.7502 102.712 25.6703C104.327 24.5903 106.267 24.1039 108.201 24.2939C110.135 24.4839 111.943 25.3386 113.317 26.7122C114.81 28.1761 115.737 30.2175 115.737 32.4746V32.6437L115.778 32.6379ZM70.0525 12.5746L63.0828 12.5279C58.8602 12.4968 55.6543 12.4968 53.4653 12.5279C51.2762 12.559 48.3444 12.6504 44.6701 12.802C41.2581 12.9187 38.0212 13.257 34.8542 13.7935L35.28 13.7352C32.8012 14.1435 30.6024 14.7267 28.4969 15.5024L28.7477 15.4208C25.7737 16.6173 23.0693 18.3969 20.7935 20.6546C18.5178 22.9123 16.7168 25.6025 15.4966 28.5669L15.4383 28.7244C14.6905 30.7736 14.1359 32.8883 13.7819 35.0408L13.7527 35.2566C13.2382 38.3218 12.9284 41.4179 12.8254 44.5242L12.8195 44.6467C12.6679 48.325 12.5765 51.2567 12.5454 53.4419C12.5143 55.6271 12.5143 58.833 12.5454 63.0595C12.5765 67.286 12.5921 69.6092 12.5921 70.0292C12.5921 70.4491 12.5765 72.7723 12.5454 76.9988C12.5143 81.2253 12.5143 84.4312 12.5454 86.6164C12.5765 88.8016 12.6679 91.7333 12.8195 95.4116C12.9362 98.8235 13.2745 102.06 13.811 105.227L13.7527 104.802C14.161 107.28 14.7442 109.479 15.5199 111.585L15.4383 111.334C16.6348 114.308 18.4144 117.012 20.6721 119.288C22.9298 121.564 25.62 123.365 28.5844 124.585L28.7419 124.643C30.5966 125.337 32.7954 125.921 35.0583 126.3L35.2741 126.329C38.0095 126.807 41.2465 127.145 44.5359 127.256L44.6584 127.262C48.3367 127.414 51.2684 127.505 53.4536 127.536C55.6388 127.567 58.8446 127.567 63.0712 127.536L70 127.396L76.9697 127.443C81.1923 127.474 84.3982 127.474 86.5872 127.443C88.7763 127.412 91.708 127.32 95.3824 127.169C98.7944 127.052 102.031 126.714 105.198 126.177L104.773 126.236C107.251 125.827 109.45 125.244 111.556 124.468L111.305 124.55C114.279 123.353 116.983 121.574 119.259 119.316C121.535 117.059 123.336 114.368 124.556 111.404L124.614 111.246C125.308 109.392 125.892 107.193 126.271 104.93L126.3 104.714C126.778 101.979 127.116 98.7419 127.227 95.4524L127.233 95.3299C127.385 91.6517 127.476 88.7199 127.507 86.5347C127.538 84.3495 127.538 81.1437 127.507 76.9172C127.476 72.6907 127.46 70.3674 127.46 69.9475C127.46 69.5276 127.476 67.2043 127.507 62.9778C127.538 58.7513 127.538 55.5455 127.507 53.3603C127.476 51.1751 127.385 48.2433 127.233 44.5651C127.116 41.1531 126.778 37.9162 126.241 34.7492L126.3 35.175C125.928 32.8628 125.336 30.5915 124.533 28.3919L124.614 28.6427C123.418 25.6688 121.638 22.9643 119.38 20.6885C117.123 18.4128 114.432 16.6118 111.468 15.3916L111.311 15.3333C109.261 14.5855 107.147 14.0309 104.994 13.6769L104.778 13.6477C101.715 13.1334 98.621 12.8236 95.5166 12.7204L95.3941 12.7145C91.7158 12.5629 88.7841 12.4715 86.5989 12.4404C84.4137 12.4093 81.2078 12.4093 76.9813 12.4404L70.0525 12.5746ZM140 70C140 83.9121 139.844 93.5413 139.533 98.8877C139.809 104.306 138.943 109.721 136.992 114.784C135.041 119.846 132.048 124.442 128.207 128.273C124.366 132.105 119.763 135.086 114.696 137.025C109.63 138.964 104.212 139.816 98.7944 139.528L98.8877 139.533C93.5414 139.844 83.9121 140 70 140C56.0879 140 46.4586 139.844 41.1123 139.533C35.6942 139.809 30.2785 138.943 25.2164 136.992C20.1542 135.041 15.5585 132.048 11.727 128.207C7.89548 124.366 4.91372 119.763 2.97491 114.696C1.03611 109.63 0.183532 104.212 0.472421 98.7944L0.466589 98.8877C0.15553 93.5413 0 83.9121 0 70C0 56.0879 0.15553 46.4586 0.466589 41.1123C0.190902 35.6942 1.05668 30.2785 3.00782 25.2164C4.95897 20.1542 7.95194 15.5585 11.7928 11.727C15.6336 7.89548 20.2366 4.91372 25.3035 2.97491C30.3704 1.03611 35.7882 0.183532 41.2056 0.472421L41.1123 0.466589C46.4586 0.15553 56.0879 0 70 0C83.9121 0 93.5414 0.15553 98.8877 0.466589C104.306 0.190902 109.721 1.05668 114.784 3.00782C119.846 4.95897 124.442 7.95194 128.273 11.7928C132.105 15.6336 135.086 20.2366 137.025 25.3035C138.964 30.3704 139.816 35.7882 139.528 41.2056L139.533 41.1123C139.844 46.4548 140 56.084 140 70Z" fill="#EAEAEA"/>
</svg>
